<svg id="Layer_1" data-name="Layer 1" xmlns="http://www.w3.org/2000/svg" viewBox="0 0 341 342"><defs><style>.cls-1{fill:#231f20;stroke:#231f20;stroke-linecap:round;stroke-miterlimit:10;}</style></defs><title>fan</title><path class="cls-1" d="M170,74a97,97,0,1,0,97,97A97,97,0,0,0,170,74Zm0,161a64,64,0,1,1,64-64A64,64,0,0,1,170,235Z"/><circle class="cls-1" cx="170" cy="171" r="46"/><path class="cls-1" d="M178,74c0-20-34-71-34-71s55-14,111,20c7,4-1,67-18,76S178,85,178,74Z"/><path class="cls-1" d="M90,116c-17-10-79-6-79-6S27,56,84,25c7-4,57,34,57,54S100,122,90,116Z"/><path class="cls-1" d="M83,213c-17,10-44,65-44,65S-1,238,1,173c0-8,58-33,75-22S93,208,83,213Z"/><path class="cls-1" d="M163,268c0,20,34,71,34,71s-55,14-111-20c-7-4,1-67,18-76S163,257,163,268Z"/><path class="cls-1" d="M251,226c17,10,79,6,79,6s-16,54-72,86c-7,4-57-34-57-54S241,220,251,226Z"/><path class="cls-1" d="M258,129c17-10,44-65,44-65s39,41,38,106c0,8-58,33-75,22S248,134,258,129Z"/></svg>